<?xml version="1.0" encoding="utf-8"?>
<!-- Generator: Adobe Illustrator 19.1.0, SVG Export Plug-In . SVG Version: 6.00 Build 0)  -->
<svg version="1.1" id="Layer_1" xmlns="http://www.w3.org/2000/svg" xmlns:xlink="http://www.w3.org/1999/xlink" x="0px" y="0px"
	 viewBox="-253 345.3 103.7 103.7" style="enable-background:new -253 345.3 103.7 103.7;" xml:space="preserve">
<style type="text/css">
	.st0{fill:#303030;}
	.st1{fill:#FF9014;}
</style>
<g id="Layer_2">
	<rect x="-253" y="345.3" class="st0" width="103.7" height="103.7"/>
</g>
<g id="Layer_1_1_">
	<g>
		<g>
			<path class="st1" d="M-174.2,370.2c-3.9-3.9-8.4-5.9-13.2-5.9c-6.3,0-13,3.5-19.9,10.5c-7,7-17,20.7-4.5,33.1
				c2.8,2.8,5.9,4.7,9.3,5.5c0.2-0.2,0.5-0.4,0.7-0.7c2.3-2.3,4-4.4,5.3-6.4c-0.7,0.1-1.4,0.2-2,0.2c-2.8,0-5.4-1.2-8-3.8
				c-3.9-3.9-7.7-10.5,4.5-22.7c5.5-5.5,10.5-8.3,14.7-8.3c2.8,0,5.4,1.2,8,3.8c3.7,3.7,7.3,9.9-2.9,21c0.4,2.6,0.3,5.2-0.3,8
				c-0.3,1.1-0.6,2.2-1.1,3.3c1.6-1.3,3.3-2.7,4.9-4.4c5.4-5.4,8.8-10.7,9.9-15.7C-167.3,381.3-169.2,375.3-174.2,370.2z"/>
		</g>
		<g>
			<path class="st1" d="M-199.7,380.9c-0.2,0.2-0.5,0.5-0.7,0.7c-2.4,2.4-4.1,4.5-5.3,6.4c0.7-0.1,1.4-0.2,2.1-0.2
				c2.8,0,5.4,1.2,8,3.8c3.3,3.3,4.4,6.6,3.5,10.5c-0.9,3.7-3.6,7.8-8,12.2c-5.5,5.5-10.5,8.3-14.7,8.3c-2.8,0-5.4-1.2-8-3.8
				c-3.3-3.3-4.4-6.6-3.5-10.5c0.8-3.2,2.9-6.8,6.4-10.6c-0.6-3.6-0.1-7.5,1.5-11.4c-1.7,1.3-3.4,2.8-5.1,4.5
				c-5.4,5.4-8.8,10.7-9.9,15.7c-1.5,6.3,0.4,12.3,5.4,17.4c3.9,3.9,8.4,6,13.2,6c6.3,0,13-3.5,19.9-10.5c5.4-5.4,8.8-10.7,9.9-15.7
				c1.5-6.3-0.4-12.3-5.4-17.4C-193.3,383.6-196.4,381.7-199.7,380.9z"/>
		</g>
	</g>
</g>
</svg>
