<?xml version="1.0" encoding="utf-8"?>
<!-- Generator: Adobe Illustrator 19.1.0, SVG Export Plug-In . SVG Version: 6.00 Build 0)  -->
<svg version="1.1" id="Layer_1" xmlns="http://www.w3.org/2000/svg" xmlns:xlink="http://www.w3.org/1999/xlink" x="0px" y="0px"
	 viewBox="-405.3 284.4 103.7 103.7" style="enable-background:new -405.3 284.4 103.7 103.7;" xml:space="preserve">
<style type="text/css">
	.st0{fill:#303030;}
	.st1{fill:#FF9014;}
</style>
<g id="Layer_2">
	<rect x="-405.3" y="284.4" class="st0" width="103.7" height="103.7"/>
</g>
<path class="st1" d="M-321,321.2c0,1.9-1.5,3.4-3.4,3.4h-42.6c-1.9,0-3.4-1.5-3.4-3.4l0,0c0-1.9,1.5-3.4,3.4-3.4h42.6
	C-322.5,317.8-321,319.3-321,321.2L-321,321.2z"/>
<circle class="st1" cx="-380.4" cy="321.2" r="5.6"/>
<path class="st1" d="M-321,336.3c0,1.9-1.5,3.4-3.4,3.4h-42.6c-1.9,0-3.4-1.5-3.4-3.4l0,0c0-1.9,1.5-3.4,3.4-3.4h42.6
	C-322.5,332.9-321,334.4-321,336.3L-321,336.3z"/>
<circle class="st1" cx="-380.4" cy="336.3" r="5.6"/>
<path class="st1" d="M-321,351.4c0,1.9-1.5,3.4-3.4,3.4h-42.6c-1.9,0-3.4-1.5-3.4-3.4l0,0c0-1.9,1.5-3.4,3.4-3.4h42.6
	C-322.5,348-321,349.6-321,351.4L-321,351.4z"/>
<circle class="st1" cx="-380.4" cy="351.4" r="5.6"/>
</svg>
