<?xml version="1.0" encoding="utf-8"?>
<!-- Generator: Adobe Illustrator 19.1.0, SVG Export Plug-In . SVG Version: 6.00 Build 0)  -->
<svg version="1.1" id="Layer_1" xmlns="http://www.w3.org/2000/svg" xmlns:xlink="http://www.w3.org/1999/xlink" x="0px" y="0px"
	 viewBox="-266.8 341 103.7 103.7" style="enable-background:new -266.8 341 103.7 103.7;" xml:space="preserve">
<style type="text/css">
	.st0{fill:#303030;}
	.st1{fill:#FF9014;}
</style>
<g id="Layer_2">
	<rect x="-266.9" y="341" class="st0" width="103.7" height="103.7"/>
</g>
<path class="st1" d="M-201,413.2c0,0,0.2,5.2-3.8,7.5c0,0-3.2,2-3.2,4.6h-7h-7c0-2.6-3.2-4.6-3.2-4.6c-4-2.3-3.7-7.6-3.7-7.6v-1.6
	h28L-201,413.2L-201,413.2z M-201,409.6V405h-14h-14v4.7H-201z M-201,379.1c-0.3,0-0.6,0-1,0.1l-27,3.1c-2.1,0-3.7,1.5-3.7,3.3
	c0,1.8,1.7,3.3,3.7,3.3c0.3,0,0.6,0,1-0.1l27-3.1c2.1,0,3.7-1.5,3.7-3.3C-197.3,380.5-199,379.1-201,379.1 M-201.2,369.6
	c-0.3,0-0.6,0-1,0.1l-27,3.1c-2.1,0-3.7,1.5-3.7,3.3c0,1.8,1.7,3.3,3.7,3.3c0.3,0,0.6,0,1-0.1l27-3.1c2.1,0,3.7-1.5,3.7-3.3
	C-197.5,371.1-199.2,369.6-201.2,369.6 M-203.6,360.4c-0.3,0-0.6,0-0.8,0.1l-23.9,2.8c-1.8,0-3.3,1.4-3.4,3.2c0,1.8,1.4,3.3,3.2,3.3
	c0.3,0,0.6,0,0.8-0.1l24-2.8c1.8,0,3.3-1.4,3.4-3.2C-200.3,361.9-201.8,360.4-203.6,360.4 M-220.1,401.2v-0.1
	c-0.1-2.6-0.3-5.2-1-7.7c-0.3-0.9-0.7-1.9-1.4-2.6c-1.2-1.1-3.2-1.2-4.7-0.4c-1.4,0.7-2,2.3-1.6,3.8c0.3,0.8,0.9,1.4,1.3,2
	c0.5,0.6,0.8,1.3,1,2.1c0.3,0.9,0.4,1.8,0.5,2.6c0,0.1,0,0.4,0,0.6v0.3c0,1,0.8,1.8,1.8,1.8h2.1c1,0,1.8-0.8,1.8-1.8L-220.1,401.2
	L-220.1,401.2z M-209.7,401.2v0.6c0,1,0.8,1.8,1.8,1.8h2.1c1,0,1.8-0.8,1.8-1.8v-0.3c0-0.2,0-0.4,0-0.6c0.1-0.9,0.2-1.8,0.5-2.6
	c0.2-0.7,0.6-1.5,1-2.1c0.5-0.7,1.1-1.2,1.3-2c0.5-1.5-0.2-3-1.6-3.8c-1.4-0.8-3.4-0.8-4.7,0.4c-0.7,0.7-1.1,1.7-1.4,2.6
	c-0.8,2.5-1,5.1-1,7.7C-209.7,401.1-209.7,401.1-209.7,401.2L-209.7,401.2z"/>
</svg>
